<svg id="Capa_1" enable-background="new 0 0 512 512" height="512" viewBox="0 0 512 512" width="512" xmlns="http://www.w3.org/2000/svg"><g><path d="m496 40h-256v-8c0-4.418-3.582-8-8-8h-16v-8c0-4.418-3.582-8-8-8h-80c-4.418 0-8 3.582-8 8v8h-16c-4.418 0-8 3.582-8 8v8h-80c-4.418 0-8 3.582-8 8v24c0 4.418 3.582 8 8 8h80v8c0 4.418 3.582 8 8 8h16v40c0 .15.063 1.625.4 2.49 0 .01.01.03.01.04l16 48c1.089 3.267 4.146 5.47 7.59 5.47v24c-.001 2.122.841 4.158 2.34 5.66l16 16c3.128 3.12 8.192 3.12 11.32 0l16-16c1.499-1.502 2.341-3.538 2.34-5.66v-24c3.444 0 6.501-2.203 7.59-5.47l16-48c0-.01.01-.03.01-.04.338-.907.4-2.34.4-2.49v-40h16c4.418 0 8-3.582 8-8v-8h256c4.418 0 8-3.582 8-8v-24c0-4.418-3.582-8-8-8zm-400 24h-72v-8h72zm24 16h-8v-40h8zm56 132.69-8 8-8-8v-20.69h16zm10.23-36.69h-36.46l-10.67-32h57.8zm13.77-48h-64v-104h64zm24-48h-8v-40h8zm264-16h-248v-8h248z"/><path d="m152 112h32c4.418 0 8-3.582 8-8v-56c0-4.418-3.582-8-8-8h-32c-4.418 0-8 3.582-8 8v56c0 4.418 3.582 8 8 8zm8-56h16v40h-16z"/><path d="m176 256c0-4.418-3.582-8-8-8s-8 3.582-8 8v40c0 4.418 3.582 8 8 8s8-3.582 8-8z"/><path d="m499.88 361.02-71.99-40.01c-2.418-1.35-5.362-1.35-7.78 0l-71.99 40.01c-.06.03-4.12 2.105-4.12 6.98v88c0 2.903 1.573 5.578 4.11 6.99l72 40c2.404 1.343 5.332 1.347 7.74.01.01-.01.02 0 .04-.01l72-40c2.537-1.412 4.11-4.087 4.11-6.99v-88c-.002-2.835-1.344-5.344-4.12-6.98zm-83.88 121.38-56-31.11v-69.69l56 31.11zm8-83.55-55.53-30.85 55.53-30.85 55.53 30.85zm64 52.44-56 31.11v-69.69l56-31.11z"/><path d="m331.88 361.02-71.99-40.01c-2.418-1.35-5.362-1.35-7.78 0l-71.99 40.01c-.06.03-4.12 2.105-4.12 6.98v88c0 2.903 1.573 5.578 4.11 6.99l72 40c2.404 1.343 5.332 1.347 7.74.01.01-.01.02 0 .04-.01l72-40c2.537-1.412 4.11-4.087 4.11-6.99v-88c-.002-2.835-1.344-5.344-4.12-6.98zm-83.88 121.38-56-31.11v-69.69l56 31.11zm8-83.55-55.53-30.85 55.53-30.85 55.53 30.85zm64 52.44-56 31.11v-69.69l56-31.11z"/><path d="m163.88 361.02-71.99-40.01c-2.418-1.35-5.362-1.35-7.78 0l-71.99 40.01c-.06.03-4.12 2.105-4.12 6.98v88c0 2.903 1.573 5.578 4.11 6.99l72 40c2.404 1.343 5.332 1.347 7.74.01.01-.01.02 0 .04-.01l72-40c2.537-1.412 4.11-4.087 4.11-6.99v-88c-.002-2.835-1.344-5.344-4.12-6.98zm-83.88 121.38-56-31.11v-69.69l56 31.11zm8-83.55-55.53-30.85 55.53-30.85 55.53 30.85zm64 52.44-56 31.11v-69.69l56-31.11z"/></g></svg>