<?xml version="1.0" encoding="iso-8859-1"?>
<!-- Generator: Adobe Illustrator 19.0.0, SVG Export Plug-In . SVG Version: 6.00 Build 0)  -->
<svg version="1.1" id="Capa_1" xmlns="http://www.w3.org/2000/svg" xmlns:xlink="http://www.w3.org/1999/xlink" x="0px" y="0px"
	 viewBox="0 0 512 512" style="enable-background:new 0 0 512 512;" xml:space="preserve">
<g>
	<g>
		<path d="M256.947,333.998c-5.522,0-10,4.477-10,10s4.478,10,10,10h0.096c5.522,0,9.952-4.477,9.952-10
			S262.47,333.998,256.947,333.998z"/>
	</g>
</g>
<g>
	<g>
		<path d="M54.069,296.93C52.21,295.07,49.63,294,47,294s-5.21,1.07-7.07,2.93S37,301.37,37,304c0,2.64,1.069,5.21,2.93,7.07
			c1.861,1.86,4.44,2.93,7.07,2.93s5.21-1.07,7.069-2.93C55.93,309.21,57,306.63,57,304S55.93,298.79,54.069,296.93z"/>
	</g>
</g>
<g>
	<g>
		<path d="M470,19.998H42c-23.159,0-42,18.841-42,42v282c0,27.57,22.43,50,50,50h152v38.004h-14c-23.159,0-42,18.841-42,42v8
			c0,5.523,4.478,10,10,10h200c5.522,0,10-4.477,10-10v-8c0-23.159-18.841-42-42-42h-14v-38.004h152c27.57,0,50-22.43,50-50v-282
			C512,38.839,493.159,19.998,470,19.998z M324,452.002c11.457,0,20.896,8.802,21.91,20H166.09c1.014-11.198,10.453-20,21.91-20H324
			z M222,432.002v-38.004h68v38.004H222z M492,343.998c0,16.542-13.458,30-30,30H50c-16.542,0-30-13.458-30-30v-282
			c0-12.131,9.869-22,22-22h204v254.004H83c-5.522,0-10,4.477-10,10s4.478,10,10,10h409V343.998z M492,294.002H266V39.998h204
			c12.131,0,22,9.869,22,22V294.002z"/>
	</g>
</g>
<g>
	<g>
		<path d="M452.127,59.998h-156c-5.522,0-10,4.477-10,10v72c0,5.523,4.477,10,10,10h156c5.522,0,10-4.477,10-10v-72
			C462.127,64.475,457.649,59.998,452.127,59.998z M442.127,131.998h-136v-52h136V131.998z"/>
	</g>
</g>
<g>
	<g>
		<path d="M125.574,169.997H60.376c-5.522,0-10,4.477-10,10c0,5.523,4.478,10,10,10h65.198c5.523,0,10-4.477,10-10
			S131.096,169.997,125.574,169.997z"/>
	</g>
</g>
<g>
	<g>
		<path d="M209.783,169.997h-49.796c-5.522,0-10,4.477-10,10c0,5.523,4.478,10,10,10h49.796c5.522,0,10-4.477,10-10
			C219.783,174.474,215.305,169.997,209.783,169.997z"/>
	</g>
</g>
<g>
	<g>
		<path d="M209.783,249.986h-18.619c-5.522,0-10,4.477-10,10c0,5.523,4.478,10,10,10h18.619c5.522,0,10-4.477,10-10
			C219.783,254.463,215.306,249.986,209.783,249.986z"/>
	</g>
</g>
<g>
	<g>
		<path d="M151.289,249.997H60.376c-5.522,0-10,4.477-10,10c0,5.523,4.478,10,10,10h90.913c5.523,0,10-4.477,10-10
			C161.289,254.474,156.811,249.997,151.289,249.997z"/>
	</g>
</g>
<g>
	<g>
		<path d="M92.976,209.995h-32.6c-5.522,0-10,4.477-10,10s4.478,10,10,10h32.6c5.522,0,10-4.477,10-10
			S98.498,209.995,92.976,209.995z"/>
	</g>
</g>
<g>
	<g>
		<path d="M209.783,209.995H141c-5.522,0-10,4.477-10,10s4.478,10,10,10h68.783c5.522,0,10-4.477,10-10
			S215.306,209.995,209.783,209.995z"/>
	</g>
</g>
<g>
	<g>
		<path d="M452.127,169.997H296.571c-5.522,0-10,4.477-10,10c0,5.523,4.478,10,10,10h155.556c5.522,0,10-4.477,10-10
			C462.127,174.474,457.649,169.997,452.127,169.997z"/>
	</g>
</g>
<g>
	<g>
		<path d="M459.2,252.93c-1.87-1.87-4.44-2.93-7.07-2.93c-2.64,0-5.21,1.06-7.07,2.93c-1.87,1.86-2.93,4.43-2.93,7.07
			c0,2.63,1.06,5.21,2.93,7.07c1.86,1.86,4.431,2.93,7.07,2.93c2.63,0,5.2-1.07,7.07-2.93c1.859-1.86,2.93-4.44,2.93-7.07
			C462.13,257.36,461.06,254.79,459.2,252.93z"/>
	</g>
</g>
<g>
	<g>
		<path d="M411.5,249.997H296.571c-5.522,0-10,4.477-10,10c0,5.523,4.478,10,10,10H411.5c5.522,0,10-4.477,10-10
			C421.5,254.474,417.022,249.997,411.5,249.997z"/>
	</g>
</g>
<g>
	<g>
		<path d="M452.127,209.995H296.571c-5.522,0-10,4.477-10,10s4.478,10,10,10h155.556c5.522,0,10-4.477,10-10
			S457.649,209.995,452.127,209.995z"/>
	</g>
</g>
<g>
	<g>
		<path d="M74.517,101.997l18.852-18.852c3.905-3.905,3.905-10.237,0-14.142c-3.906-3.905-10.236-3.905-14.143,0L53.305,94.927
			c-3.905,3.905-3.905,10.237,0,14.142l25.922,25.922c1.953,1.953,4.512,2.929,7.071,2.929c2.559,0,5.118-0.977,7.071-2.929
			c3.905-3.905,3.905-10.237,0-14.142L74.517,101.997z"/>
	</g>
</g>
<g>
	<g>
		<path d="M212.695,94.928l-25.922-25.922c-3.904-3.905-10.234-3.905-14.143,0c-3.905,3.905-3.905,10.237,0,14.142L191.482,102
			l-18.852,18.852c-3.904,3.903-3.904,10.234,0.001,14.14c1.953,1.953,4.512,2.929,7.071,2.929c2.559,0,5.118-0.977,7.071-2.929
			l25.922-25.922C216.6,105.165,216.6,98.833,212.695,94.928z"/>
	</g>
</g>
<g>
	<g>
		<path d="M156.368,62.235c-4.763-2.799-10.891-1.207-13.688,3.555l-36.602,62.283c-2.799,4.761-1.207,10.89,3.555,13.688
			c1.592,0.936,3.335,1.38,5.057,1.38c3.429,0,6.769-1.765,8.631-4.935l36.602-62.283C162.722,71.162,161.13,65.033,156.368,62.235z
			"/>
	</g>
</g>
<g>
</g>
<g>
</g>
<g>
</g>
<g>
</g>
<g>
</g>
<g>
</g>
<g>
</g>
<g>
</g>
<g>
</g>
<g>
</g>
<g>
</g>
<g>
</g>
<g>
</g>
<g>
</g>
<g>
</g>
</svg>
